<svg width="21" height="21" viewBox="0 0 21 21" fill="none" xmlns="http://www.w3.org/2000/svg">
<path fill-rule="evenodd" clip-rule="evenodd" d="M9.73888 0C15.1089 0 19.4769 4.368 19.4769 9.738C19.4769 12.2715 18.5046 14.5823 16.9135 16.3165L20.0443 19.4407C20.3373 19.7337 20.3383 20.2077 20.0453 20.5007C19.8993 20.6487 19.7063 20.7217 19.5143 20.7217C19.3233 20.7217 19.1313 20.6487 18.9843 20.5027L15.8157 17.343C14.1489 18.6778 12.0356 19.477 9.73888 19.477C4.36888 19.477 -0.00012207 15.108 -0.00012207 9.738C-0.00012207 4.368 4.36888 0 9.73888 0ZM9.73888 1.5C5.19588 1.5 1.49988 5.195 1.49988 9.738C1.49988 14.281 5.19588 17.977 9.73888 17.977C14.2809 17.977 17.9769 14.281 17.9769 9.738C17.9769 5.195 14.2809 1.5 9.73888 1.5Z" fill="#3754DB"/>
</svg>
